<?xml version="1.0" standalone="no"?><!DOCTYPE svg PUBLIC "-//W3C//DTD SVG 1.1//EN" "http://www.w3.org/Graphics/SVG/1.1/DTD/svg11.dtd"><svg t="1623743930217" class="icon" viewBox="0 0 1024 1024" version="1.1" xmlns="http://www.w3.org/2000/svg" p-id="1782" width="32" height="32" xmlns:xlink="http://www.w3.org/1999/xlink"><defs><style type="text/css"></style></defs><path d="M-70.54222222-70.54222222h1165.08444444v1165.08444444H-70.54222222z" fill="#FFFFFF" p-id="1783"></path><path d="M822.71637049 268.35754098l-0.01165084-200.70909725-288.55646436 99.1952896 288.5681152 101.51380765zM497.55295289 154.3307264L194.08340765 45.96622222v209.54043733l303.46954524-101.17593315zM309.68308622 313.31814969l50.58796658-14.45869796v61.41160107l108.38780587-39.72937955v195.09339022l-43.36444302 14.44704711v-28.88244338l-72.25853725 28.88244338 0.3145728 108.56256853-43.66736498 14.28393529-0.32622364-107.45573831-71.92066276 27.96202666 0.01165085 21.68222152-43.37609387 14.44704711 0.01165085-195.08173938 115.59967857-36.12926862v-65.03501369z m115.61132943 68.64677546l-65.02336285 25.28233245v72.25853725l65.02336285-21.68222152v-75.85864818zM237.43619982 522.85858702l72.25853725-25.29398329-0.01165085-75.85864818-72.2468864 25.28233245v75.87029902z m281.79897458-350.90013297l-390.18678045 134.12452124v534.71550578l390.18678045-130.08167822V171.95845405z m10.87023787 556.84045937c-140.38102471 46.99950649-282.45142187 93.90580622-422.73923982 140.89366187l-0.01165085-578.05664711L844.398592 45.96622222v230.02262187l72.25853725 22.87060764-0.01165085 556.38607645-386.54006613-126.44661476z m303.38798933-22.95216355c-16.9869312-61.42325191-34.02046578-123.1028224-51.08895289-184.94550472-17.12674133-62.00579413-34.26513351-124.29120853-51.49673244-186.77468728-18.4549376-7.15361849-36.95647858-14.34218951-55.53957547-21.55406222-16.90537529 49.62094649-33.8690048 99.4050048-50.855936 149.2939207l-51.26371555 150.50560854c18.86271715 6.79244231 37.73708515 13.57323378 56.52989724 20.31907271 7.28177778-22.95216355 14.56355555-45.9276288 21.83368249-68.8914432 34.69621475 12.69942045 69.38077867 25.39884089 104.06534257 38.08661049 7.39828622 28.05523342 14.7849216 56.07551431 22.20650952 84.00258844 18.57144605 6.67593387 37.13124125 13.3169152 55.60948053 19.95789654zM738.76038542 539.14646755c-12.00036978-45.84607289-24.0123904-91.70379662-35.93120427-137.56152035-11.73240035 37.04968533-23.44149902 74.12267235-35.16224853 111.19565938 23.70946845 8.77308587 47.3956352 17.58112427 71.0934528 26.36586097z m-34.74281813 355.10608783c-137.91104569 86.21624889-274.89002382 96.92337493-415.72543147 7.40993707l-7.53809635 11.77900373c134.77696853 85.63370667 268.90148978 84.28220871 406.92904391 6.83904569 8.08568605-4.59043271 16.01991111-9.32067555 23.88423111-14.23733192L727.54062222 930.98766791l36.26907876-66.64283022-75.7071872 5.0331648 15.91505351 24.87455289z" p-id="1784"></path></svg>